<?xml version="1.0" encoding="UTF-8" standalone="no"?>
<!-- Created with Inkscape (http://www.inkscape.org/) -->

<svg
   xmlns:dc="http://purl.org/dc/elements/1.1/"
   xmlns:cc="http://creativecommons.org/ns#"
   xmlns:rdf="http://www.w3.org/1999/02/22-rdf-syntax-ns#"
   xmlns:svg="http://www.w3.org/2000/svg"
   xmlns="http://www.w3.org/2000/svg"
   xmlns:sodipodi="http://sodipodi.sourceforge.net/DTD/sodipodi-0.dtd"
   xmlns:inkscape="http://www.inkscape.org/namespaces/inkscape"
   id="svg2899"
   version="1.1"
   inkscape:version="0.47pre4 r22446"
   width="40.803757"
   height="38.835999"
   sodipodi:docname="appearance2.svg">
  <sodipodi:namedview
     pagecolor="#ffffff"
     bordercolor="#666666"
     borderopacity="1"
     objecttolerance="10"
     gridtolerance="10"
     guidetolerance="10"
     inkscape:pageopacity="0"
     inkscape:pageshadow="2"
     inkscape:window-width="1600"
     inkscape:window-height="852"
     id="namedview2901"
     showgrid="false"
     inkscape:zoom="8.6605504"
     inkscape:cx="4.8759082"
     inkscape:cy="-6.353187"
     inkscape:window-x="0"
     inkscape:window-y="0"
     inkscape:window-maximized="1"
     inkscape:current-layer="g3028" />
  <metadata
     id="metadata2905">
    <rdf:RDF>
      <cc:Work
         rdf:about="">
        <dc:format>image/svg+xml</dc:format>
        <dc:type
           rdf:resource="http://purl.org/dc/dcmitype/StillImage" />
        <dc:title></dc:title>
      </cc:Work>
    </rdf:RDF>
  </metadata>
  <defs
     id="defs2903">
    <inkscape:perspective
       sodipodi:type="inkscape:persp3d"
       inkscape:vp_x="0 : 0.5 : 1"
       inkscape:vp_y="0 : 1000 : 0"
       inkscape:vp_z="1 : 0.5 : 1"
       inkscape:persp3d-origin="0.5 : 0.33333333 : 1"
       id="perspective2907" />
    <inkscape:perspective
       id="perspective2850"
       inkscape:persp3d-origin="0.5 : 0.33333333 : 1"
       inkscape:vp_z="1 : 0.5 : 1"
       inkscape:vp_y="0 : 1000 : 0"
       inkscape:vp_x="0 : 0.5 : 1"
       sodipodi:type="inkscape:persp3d" />
    <inkscape:perspective
       id="perspective3652"
       inkscape:persp3d-origin="0.5 : 0.33333333 : 1"
       inkscape:vp_z="1 : 0.5 : 1"
       inkscape:vp_y="0 : 1000 : 0"
       inkscape:vp_x="0 : 0.5 : 1"
       sodipodi:type="inkscape:persp3d" />
  </defs>
  <g
     id="g3028"
     transform="translate(-107.16223,-66.582)">
    <path
       style="fill:#680000;fill-opacity:1"
       d="m 114.64398,105.08845 c 0,-0.18125 0.49828,-1.81273 1.10728,-3.62551 1.05986,-3.154806 2.84395,-9.87516 2.80863,-10.579605 -0.0242,-0.482324 -4.65974,-4.383593 -8.28498,-6.972613 -1.70366,-1.216698 -3.10436,-2.322787 -3.11266,-2.457975 -0.009,-0.154556 2.59902,-0.313032 7.0271,-0.426921 3.87321,-0.09962 7.31293,-0.284057 7.64383,-0.409864 0.47109,-0.179109 0.72543,-0.619798 1.17217,-2.031053 0.3138,-0.991273 0.97101,-2.742489 1.46046,-3.891593 0.48946,-1.149103 1.3228,-3.444237 1.85187,-5.100297 0.52907,-1.65606 1.08702,-3.011019 1.23989,-3.011019 0.15286,0 0.94489,1.963307 1.76005,4.362905 2.05305,6.04354 3.24693,9.225281 3.59486,9.580439 0.21253,0.21695 2.34949,0.348773 7.61476,0.469734 4.02563,0.09248 7.37207,0.253501 7.43654,0.35782 0.0645,0.104318 -1.29496,1.212746 -3.02098,2.463173 -1.72601,1.250426 -3.96936,2.999958 -4.98523,3.887849 -1.01587,0.88789 -2.22537,1.928591 -2.68778,2.312666 l -0.84074,0.698321 0.53284,2.619945 c 0.29306,1.440971 1.14274,4.500296 1.88818,6.798498 1.44351,4.45035 1.58941,5.18069 0.98892,4.95026 -0.34784,-0.13348 -2.42622,-1.53904 -5.16252,-3.49129 -0.67594,-0.48226 -1.89194,-1.21658 -2.70223,-1.63183 -0.81029,-0.415245 -2.11392,-1.206802 -2.89696,-1.759018 -1.176,-0.829338 -1.49701,-0.954498 -1.84501,-0.719355 -0.23173,0.15657 -1.69332,1.083261 -3.24799,2.059318 -1.55466,0.976055 -3.2691,2.128405 -3.80986,2.560795 -1.65801,1.32573 -4.7493,3.31577 -5.15064,3.31577 -0.20889,0 -0.3798,-0.1483 -0.3798,-0.32955 z"
       id="path3046" />
    <path
       style="fill:#bc0000;fill-opacity:1"
       d="m 117.15809,101.36137 c 0,-0.145 0.39862,-1.450185 0.88583,-2.900407 0.84788,-2.523846 2.27516,-7.900127 2.2469,-8.463684 -0.0194,-0.38586 -3.7278,-3.506873 -6.62799,-5.578091 -1.36293,-0.973358 -2.48348,-1.858229 -2.49012,-1.96638 -0.008,-0.123643 2.07922,-0.250423 5.62168,-0.341535 3.09856,-0.0797 5.85034,-0.227245 6.11506,-0.327891 0.37687,-0.143288 0.58034,-0.495838 0.93774,-1.624842 0.25104,-0.793019 0.77681,-2.193993 1.16837,-3.113275 0.39156,-0.919283 1.05823,-2.75539 1.48149,-4.080238 0.42326,-1.324848 0.86962,-2.408815 0.99191,-2.408815 0.1223,0 0.75591,1.570646 1.40804,3.490324 1.64244,4.83483 2.59755,7.380225 2.87589,7.664352 0.17002,0.173558 1.8796,0.279017 6.09181,0.375785 3.2205,0.07399 5.89766,0.202803 5.94923,0.286256 0.0516,0.08346 -1.03597,0.970197 -2.41678,1.970539 -1.38081,1.000341 -3.17549,2.399966 -3.98819,3.110279 -0.81269,0.710313 -1.78029,1.542873 -2.15022,1.850133 l -0.67259,0.558655 0.42627,2.095957 c 0.23445,1.152778 0.91419,3.600237 1.51055,5.438802 1.1548,3.560276 1.27152,4.144546 0.79113,3.960206 -0.27827,-0.10678 -1.94098,-1.23123 -4.13001,-2.793031 -0.54076,-0.385809 -1.51356,-0.97327 -2.16179,-1.305465 -0.64823,-0.332198 -1.69113,-0.965444 -2.31757,-1.407215 -0.9408,-0.663472 -1.1976,-0.7636 -1.47601,-0.575486 -0.18538,0.125258 -1.35465,0.866611 -2.59839,1.647455 -1.24373,0.780845 -2.61528,1.702728 -3.04788,2.048634 -1.32642,1.060588 -3.79944,2.652618 -4.12052,2.652618 -0.16711,0 -0.30384,-0.11864 -0.30384,-0.26364 z"
       id="path3046-2" />
    <path
       style="fill:#ff0000;fill-opacity:1"
       d="m 119.21434,98.44887 c 0,-0.116004 0.3189,-1.160152 0.70866,-2.320328 0.67831,-2.019079 1.82013,-6.320104 1.79752,-6.770952 -0.0155,-0.308687 -2.98224,-2.805497 -5.30239,-4.462471 -1.09034,-0.778686 -1.98679,-1.486583 -1.9921,-1.573104 -0.006,-0.09891 1.66338,-0.200339 4.49735,-0.273228 2.47885,-0.06376 4.68027,-0.181796 4.89204,-0.262313 0.3015,-0.11463 0.46428,-0.39667 0.7502,-1.299874 0.20083,-0.634415 0.62144,-1.755194 0.93469,-2.49062 0.31325,-0.735426 0.84659,-2.204311 1.18519,-3.26419 0.33861,-1.059879 0.6957,-1.927052 0.79353,-1.927052 0.0978,0 0.60473,1.256516 1.12644,2.792259 1.31395,3.867864 2.07803,5.904181 2.30071,6.131482 0.13601,0.138846 1.50367,0.223214 4.87344,0.300628 2.5764,0.05919 4.71813,0.162242 4.75939,0.229005 0.0413,0.06676 -0.82878,0.776157 -1.93343,1.576431 -1.10465,0.800273 -2.54039,1.919973 -3.19055,2.488223 -0.65015,0.568251 -1.42423,1.234298 -1.72017,1.480105 l -0.53808,0.446925 0.34102,1.676767 c 0.18756,0.922222 0.73135,2.880191 1.20844,4.351043 0.92384,2.84822 1.01722,3.315638 0.6329,3.168164 -0.22262,-0.08543 -1.55278,-0.984984 -3.30401,-2.234424 -0.4326,-0.308648 -1.21084,-0.778617 -1.72943,-1.044374 -0.51858,-0.265756 -1.3529,-0.772354 -1.85405,-1.125772 -0.75264,-0.530775 -0.95809,-0.610878 -1.18081,-0.460388 -0.1483,0.100206 -1.08372,0.693289 -2.07871,1.317966 -0.99499,0.624674 -2.09223,1.36218 -2.43831,1.638906 -1.06113,0.848468 -3.03955,2.122095 -3.29641,2.122095 -0.13369,0 -0.24307,-0.09491 -0.24307,-0.210909 z"
       id="path3046-2-1" />
  </g>
</svg>
