<?xml version="1.0" encoding="UTF-8" standalone="no"?>
<!-- Created with Inkscape (http://www.inkscape.org/) -->
<svg
   xmlns:dc="http://purl.org/dc/elements/1.1/"
   xmlns:cc="http://web.resource.org/cc/"
   xmlns:rdf="http://www.w3.org/1999/02/22-rdf-syntax-ns#"
   xmlns:svg="http://www.w3.org/2000/svg"
   xmlns="http://www.w3.org/2000/svg"
   xmlns:sodipodi="http://sodipodi.sourceforge.net/DTD/sodipodi-0.dtd"
   xmlns:inkscape="http://www.inkscape.org/namespaces/inkscape"
   width="152.2207"
   height="103.8307"
   id="svg2"
   sodipodi:version="0.32"
   inkscape:version="0.44+devel"
   sodipodi:modified="true"
   version="1.0">
  <defs
     id="defs4">
 <radialGradient
   fy="109.001"
   fx="128.304"
   r="3.1809001"
   cy="109.001"
   cx="128.304"
   gradientUnits="userSpaceOnUse"
   id="id6">
   <stop
   id="stop2243"
   style="stop-color:white"
   offset="0" />

   <stop
   id="stop2245"
   style="stop-color:#1F1A17"
   offset="1" />

  </radialGradient>

  <linearGradient
   y2="103.586"
   x2="134.929"
   y1="112.042"
   x1="136.386"
   gradientUnits="userSpaceOnUse"
   id="id5">
   <stop
   id="stop2226"
   style="stop-color:#838281"
   offset="0" />

   <stop
   id="stop2228"
   style="stop-color:white"
   offset="0.0588235" />

   <stop
   id="stop2230"
   style="stop-color:#838281"
   offset="0.141176" />

   <stop
   id="stop2232"
   style="stop-color:white"
   offset="0.4" />

   <stop
   id="stop2234"
   style="stop-color:#838281"
   offset="0.478431" />

   <stop
   id="stop2236"
   style="stop-color:#383431"
   offset="0.831373" />

   <stop
   id="stop2238"
   style="stop-color:#838281"
   offset="0.890196" />

   <stop
   id="stop2240"
   style="stop-color:white"
   offset="1" />

  </linearGradient>

  <linearGradient
   y2="129.851"
   x2="32.150101"
   y1="141.595"
   x1="34.386799"
   gradientUnits="userSpaceOnUse"
   id="id4">
   <stop
   id="stop2213"
   style="stop-color:#C2C1C1"
   offset="0" />

   <stop
   id="stop2215"
   style="stop-color:white"
   offset="0.0705882" />

   <stop
   id="stop2217"
   style="stop-color:#C2C1C1"
   offset="0.141176" />

   <stop
   id="stop2219"
   style="stop-color:white"
   offset="0.470588" />

   <stop
   id="stop2221"
   style="stop-color:#C2C1C1"
   offset="0.631373" />

   <stop
   id="stop2223"
   style="stop-color:white"
   offset="1" />

  </linearGradient>

  <linearGradient
   y2="151.998"
   x2="101.403"
   y1="89.718803"
   x1="90.049103"
   gradientUnits="userSpaceOnUse"
   id="id3">
   <stop
   id="stop2196"
   style="stop-color:#1F1A17"
   offset="0" />

   <stop
   id="stop2198"
   style="stop-color:white"
   offset="0.360784" />

   <stop
   id="stop2200"
   style="stop-color:#495677"
   offset="0.419608" />

   <stop
   id="stop2202"
   style="stop-color:white"
   offset="0.509804" />

   <stop
   id="stop2204"
   style="stop-color:#969594"
   offset="0.6" />

   <stop
   id="stop2206"
   style="stop-color:#495677"
   offset="0.670588" />

   <stop
   id="stop2208"
   style="stop-color:white"
   offset="0.741176" />

   <stop
   id="stop2210"
   style="stop-color:white"
   offset="1" />

  </linearGradient>

  <linearGradient
   y2="101.14"
   x2="154.655"
   y1="111.344"
   x1="157.761"
   gradientUnits="userSpaceOnUse"
   id="id2">
   <stop
   id="stop2183"
   style="stop-color:#AAA9A9"
   offset="0" />

   <stop
   id="stop2185"
   style="stop-color:white"
   offset="0.101961" />

   <stop
   id="stop2187"
   style="stop-color:#C2C1C1"
   offset="0.25098" />

   <stop
   id="stop2189"
   style="stop-color:white"
   offset="0.568627" />

   <stop
   id="stop2191"
   style="stop-color:#C2C1C1"
   offset="0.721569" />

   <stop
   id="stop2193"
   style="stop-color:white"
   offset="1" />

  </linearGradient>

  <linearGradient
   y2="99.8638"
   x2="166.47701"
   y1="107.538"
   x1="167.96899"
   gradientUnits="userSpaceOnUse"
   id="id1">
   <stop
   id="stop2170"
   style="stop-color:#AAA9A9"
   offset="0" />

   <stop
   id="stop2172"
   style="stop-color:white"
   offset="0.0588235" />

   <stop
   id="stop2174"
   style="stop-color:#AAA9A9"
   offset="0.14902" />

   <stop
   id="stop2176"
   style="stop-color:white"
   offset="0.34902" />

   <stop
   id="stop2178"
   style="stop-color:#AAA9A9"
   offset="0.521569" />

   <stop
   id="stop2180"
   style="stop-color:white"
   offset="1" />

  </linearGradient>

  <clipPath
   id="id0">
     <path
   id="path2167"
   d="M 82.1474,119.596 L 119.2508,119.596 L 119.2508,132.5332 L 82.1474,132.5332 L 82.1474,119.596 L 82.1474,119.596 z " />

    </clipPath>

    <style
   id="style2164"
   type="text/css">
   
    .str1 {stroke:#1F1A17;stroke-width:0.0762}
    .str0 {stroke:#1F1A17;stroke-width:0.35}
    .str2 {stroke:#1F1A17;stroke-width:0.7}
    .fil3 {fill:none}
    .fil8 {fill:#1F1A17}
    .fil4 {fill:#838281}
    .fil2 {fill:#FFF974}
    .fil1 {fill:#FFFB9C}
    .fil0 {fill:#FFFCC8}
    .fil6 {fill:url(#id1)}
    .fil7 {fill:url(#id2)}
    .fil9 {fill:url(#id3)}
    .fil5 {fill:url(#id4)}
    .fil10 {fill:url(#id5)}
    .fil11 {fill:url(#id6)}
   
  </style>

  </defs>
  <sodipodi:namedview
     id="base"
     pagecolor="#ffffff"
     bordercolor="#666666"
     borderopacity="1.0"
     gridtolerance="10000"
     guidetolerance="10"
     objecttolerance="10"
     inkscape:pageopacity="0.0"
     inkscape:pageshadow="2"
     inkscape:zoom="3.6309106"
     inkscape:cx="76.110352"
     inkscape:cy="51.915352"
     inkscape:document-units="px"
     inkscape:current-layer="layer1"
     inkscape:window-width="742"
     inkscape:window-height="606"
     inkscape:window-x="346"
     inkscape:window-y="60" />
  <metadata
     id="metadata7">
    <rdf:RDF>
      <cc:Work
         rdf:about="">
        <dc:format>image/svg+xml</dc:format>
        <dc:type
           rdf:resource="http://purl.org/dc/dcmitype/StillImage" />
      </cc:Work>
    </rdf:RDF>
  </metadata>
  <g
     inkscape:label="Layer 1"
     inkscape:groupmode="layer"
     id="layer1"
     transform="translate(-526.74679,-534.73255)">
    <g
       id="Capa_x0020_1"
       transform="translate(506.29884,454.67405)">
  <metadata
   id="CorelCorpID_0Corel-Layer" />

  <polygon
   id="polygon2249"
   points="53.0638,109.662 101.931,142.822 129.822,97.5971 87.8768,80.4087 53.0638,109.662 "
   class="fil0 str0"
   style="fill:#fffcc8;stroke:#1f1a17;stroke-width:0.34999999" />

  <polygon
   id="polygon2251"
   points="48.0907,150.38 96.9582,183.539 101.931,142.822 53.0638,109.662 48.0907,150.38 "
   class="fil1 str0"
   style="fill:#fffb9c;stroke:#1f1a17;stroke-width:0.34999999" />

  <polygon
   id="polygon2253"
   points="124.727,138.333 96.9582,183.539 101.81,142.84 129.822,97.5971 124.727,138.333 "
   class="fil2 str0"
   style="fill:#fff974;stroke:#1f1a17;stroke-width:0.34999999" />

  <line
   id="line2255"
   y2="181.681"
   x2="96.171799"
   y1="164.298"
   x1="70.6091"
   class="fil3 str1"
   style="fill:none;stroke:#1f1a17;stroke-width:0.0762" />

  <line
   id="line2257"
   y2="180.817"
   x2="95.9562"
   y1="163.43401"
   x1="70.393501"
   class="fil3 str1"
   style="fill:none;stroke:#1f1a17;stroke-width:0.0762" />

  <line
   id="line2259"
   y2="179.664"
   x2="95.3088"
   y1="162.282"
   x1="69.746101"
   class="fil3 str1"
   style="fill:none;stroke:#1f1a17;stroke-width:0.0762" />

  <line
   id="line2261"
   y2="178.368"
   x2="94.517899"
   y1="160.985"
   x1="68.9552"
   class="fil3 str1"
   style="fill:none;stroke:#1f1a17;stroke-width:0.0762" />

  <line
   id="line2263"
   y2="176.56799"
   x2="93.151604"
   y1="159.185"
   x1="67.588898"
   class="fil3 str1"
   style="fill:none;stroke:#1f1a17;stroke-width:0.0762" />

  <line
   id="line2265"
   y2="157.287"
   x2="91.625298"
   y1="139.90401"
   x1="66.062599"
   class="fil3 str1"
   style="fill:none;stroke:#1f1a17;stroke-width:0.0762" />

  <line
   id="line2267"
   y2="160.18401"
   x2="94.181602"
   y1="142.802"
   x1="68.618896"
   class="fil3 str1"
   style="fill:none;stroke:#1f1a17;stroke-width:0.0762" />

  <line
   id="line2269"
   y2="157.23599"
   x2="112.237"
   y1="180.12801"
   x1="98.136597"
   class="fil3 str1"
   style="fill:none;stroke:#1f1a17;stroke-width:0.0762" />

  <line
   id="line2271"
   y2="156.108"
   x2="112.463"
   y1="178.99899"
   x1="98.362"
   class="fil3 str1"
   style="fill:none;stroke:#1f1a17;stroke-width:0.0762" />

  <line
   id="line2273"
   y2="154.94701"
   x2="112.591"
   y1="177.839"
   x1="98.4907"
   class="fil3 str1"
   style="fill:none;stroke:#1f1a17;stroke-width:0.0762" />

  <line
   id="line2275"
   y2="153.464"
   x2="112.913"
   y1="176.356"
   x1="98.812599"
   class="fil3 str1"
   style="fill:none;stroke:#1f1a17;stroke-width:0.0762" />

  <line
   id="line2277"
   y2="152.045"
   x2="113.106"
   y1="174.937"
   x1="99.005798"
   class="fil3 str1"
   style="fill:none;stroke:#1f1a17;stroke-width:0.0762" />

  <line
   id="line2279"
   y2="150.17599"
   x2="113.686"
   y1="173.067"
   x1="99.585297"
   class="fil3 str1"
   style="fill:none;stroke:#1f1a17;stroke-width:0.0762" />

  <line
   id="line2281"
   y2="157.23599"
   x2="112.237"
   y1="180.12801"
   x1="98.136597"
   class="fil3 str1"
   style="fill:none;stroke:#1f1a17;stroke-width:0.0762" />

  <line
   id="line2283"
   y2="129.011"
   x2="79.590401"
   y1="111.629"
   x1="54.027699"
   class="fil3 str1"
   style="fill:none;stroke:#1f1a17;stroke-width:0.0762" />

  <line
   id="line2285"
   y2="129.83701"
   x2="79.915001"
   y1="112.454"
   x1="54.352299"
   class="fil3 str1"
   style="fill:none;stroke:#1f1a17;stroke-width:0.0762" />

  <line
   id="line2287"
   y2="130.98199"
   x2="80.523804"
   y1="113.599"
   x1="54.961102"
   class="fil3 str1"
   style="fill:none;stroke:#1f1a17;stroke-width:0.0762" />

  <line
   id="line2289"
   y2="132.642"
   x2="81.8722"
   y1="115.259"
   x1="56.309502"
   class="fil3 str1"
   style="fill:none;stroke:#1f1a17;stroke-width:0.0762" />

  <line
   id="line2291"
   y2="140.939"
   x2="86.332001"
   y1="123.556"
   x1="60.769299"
   class="fil3 str1"
   style="fill:none;stroke:#1f1a17;stroke-width:0.0762" />

  <line
   id="line2293"
   y2="142.806"
   x2="87.991501"
   y1="125.423"
   x1="62.428799"
   class="fil3 str1"
   style="fill:none;stroke:#1f1a17;stroke-width:0.0762" />

  <line
   id="line2295"
   y2="144.77699"
   x2="89.651001"
   y1="127.394"
   x1="64.088303"
   class="fil3 str1"
   style="fill:none;stroke:#1f1a17;stroke-width:0.0762" />

  <path
   id="path2297"
   d="M 87.1945,86.3932 C 104.8619,88.7083 103.5501,95.6961 111.3124,100.1505 C 118.4176,104.2279 128.0833,99.2891 129.8221,97.5971 C 116.3323,107.4166 97.0484,112.6349 80.6616,116.8306 C 71.8809,117.5902 67.5367,119.4826 53.0638,109.6619 C 78.102,128.0954 98.718,111.847 87.1945,86.3932 L 87.1945,86.3932 z "
   class="fil2 str1"
   style="fill:#fff974;stroke:#1f1a17;stroke-width:0.0762" />

  <path
   id="path2299"
   d="M 20.9974,139.539 C 21.4207,141.0486 22.4037,141.6991 22.9217,141.5539 C 23.4396,141.4086 25.985,139.3541 25.5616,137.8445 C 25.1383,136.3349 21.9152,136.2301 21.3972,136.3753 C 20.8793,136.5205 20.574,138.0294 20.9974,139.539 L 20.9974,139.539 z "
   class="fil4 str0"
   style="fill:#838281;stroke:#1f1a17;stroke-width:0.34999999" />

  <path
   id="path2301"
   d="M 36.4522,130.018 L 22.2662,135.961 C 23.7301,136.237 24.8916,139.9778 23.7999,141.4289 L 39.1009,139.1489 C 39.4469,137.5746 44.2708,133.8333 43.7283,132.1621 C 43.2497,130.6877 37.4927,131.2712 36.4522,130.018 z "
   class="fil5 str0"
   style="fill:url(#id4);stroke:#1f1a17;stroke-width:0.34999999" />

  <path
   id="path2303"
   d="M 161.892,102.038 L 168.6675,100.704 C 172.9508,100.1003 173.6827,104.8966 169.7007,105.7807 L 163.0911,107.3003 L 163.0907,107.2988 C 163.1063,106.3535 161.1358,106.3653 160.9495,105.5167 C 160.7634,104.6681 162.361,102.9584 161.8921,102.0388 L 161.892,102.038 L 161.892,102.038 z "
   class="fil6 str0"
   style="fill:url(#id1);stroke:#1f1a17;stroke-width:0.34999999" />

  <path
   id="path2305"
   d="M 151.924,102.546 L 161.5481,101.4017 C 162.9043,103.7917 163.2009,105.584 163.0618,108.0747 L 154.3106,111.0825 C 154.1251,109.7339 150.2596,109.8789 149.9496,108.7172 C 149.2155,105.966 151.924,102.546 151.924,102.546 z "
   class="fil7 str0"
   style="fill:url(#id2);stroke:#1f1a17;stroke-width:0.34999999" />

  <line
   id="line2307"
   y2="101.41"
   x2="128.278"
   y1="124.302"
   x1="114.177"
   class="fil3 str1"
   style="fill:none;stroke:#1f1a17;stroke-width:0.0762" />

  <line
   id="line2309"
   y2="103.377"
   x2="127.793"
   y1="126.269"
   x1="113.692"
   class="fil3 str1"
   style="fill:none;stroke:#1f1a17;stroke-width:0.0762" />

  <line
   id="line2311"
   y2="106.422"
   x2="126.637"
   y1="129.314"
   x1="112.537"
   class="fil3 str1"
   style="fill:none;stroke:#1f1a17;stroke-width:0.0762" />

  <g
   id="_223535000">
   <g
   id="g2314">
     <!--   <image id="_47242936" transform="matrix(1 0 0 1 -25.8026 -7.1671)" x="107.95" y="126.763" width="37.1034" height="12.9372" xlink:href="stick-up & pen_Images\stick-up & pen_ImgID1.png"/>  -->
   </g>

  </g>

  <polygon
   id="polygon2316"
   points="82.5532,125.881 117.249,117.903 117.885,120.63 82.5532,129.059 82.5532,125.881 "
   class="fil8 str1"
   style="fill:#1f1a17;stroke:#1f1a17;stroke-width:0.0762" />

  <line
   id="line2318"
   y2="111.156"
   x2="124.578"
   y1="134.048"
   x1="110.477"
   class="fil3 str1"
   style="fill:none;stroke:#1f1a17;stroke-width:0.0762" />

  <path
   id="path2320"
   d="M 36.4525,130.019 C 77.0276,117.4614 113.3793,109.0957 151.9245,102.5465 C 151.9245,102.5465 153.6852,106.5393 154.3109,111.083 C 116.209,121.7214 79.5719,130.7637 39.1009,139.1491 C 39.7522,136.1852 38.673,132.6921 36.4526,130.019 L 36.4525,130.019 z "
   class="fil9 str0"
   style="fill:url(#id3);stroke:#1f1a17;stroke-width:0.34999999" />

  <path
   id="path2322"
   d="M 134.964,104.19 C 148.0619,101.6837 158.9942,101.274 159.3771,103.275 C 159.76,105.2762 149.4487,108.9314 136.3509,111.4377 C 123.2531,113.9439 112.3207,114.3537 111.9378,112.3525 C 111.5549,110.3515 121.8662,106.6963 134.964,104.19 z "
   class="fil10 str0"
   style="fill:url(#id5);stroke:#1f1a17;stroke-width:0.34999999" />

  <path
   id="path2324"
   d="M 128.304,106.42 C 130.0605,106.42 131.4849,107.5756 131.4849,109.0007 C 131.4849,110.426 130.0605,111.5817 128.304,111.5817 C 126.5477,111.5817 125.1233,110.426 125.1233,109.0007 C 125.1233,107.5756 126.5477,106.42 128.304,106.42 L 128.304,106.42 z "
   class="fil11"
   style="fill:url(#id6)" />

  <path
   id="path2326"
   d="M 161.892,102.039 L 161.892,102.039 z M 87.877,80.4085 L 129.8223,97.5969 L 128.8351,105.4903 C 130.782,105.0345 132.8364,104.597 134.9644,104.1898 C 143.7708,102.5047 151.5982,101.7674 155.8985,102.0733 L 161.5484,101.4015 C 161.6714,101.6183 161.7858,101.8303 161.8919,102.0382 L 168.6674,100.7042 C 172.9507,100.1005 173.6826,104.8968 169.7006,105.7809 L 163.091,107.3005 C 163.0868,107.5516 163.0769,107.8091 163.0621,108.0745 L 154.3109,111.0823 C 145.2198,113.6206 136.2121,116.0681 127.2158,118.4374 L 124.7275,138.3323 L 96.9584,183.5392 L 48.0909,150.3793 L 49.7359,136.9111 C 46.2184,137.6624 42.6746,138.408 39.1011,139.1486 L 23.8001,141.4286 C 23.9574,141.2195 24.068,140.9628 24.1375,140.6758 C 23.6219,141.1582 23.1214,141.4975 22.9219,141.5535 C 22.4039,141.6987 21.4209,141.0482 20.9976,139.5386 C 20.5742,138.029 20.8795,136.5201 21.3974,136.3749 C 21.6083,136.3158 22.2673,136.2981 23.0033,136.3997 C 22.7743,136.1664 22.525,136.0095 22.2664,135.9607 L 36.4527,130.0183 C 41.3995,128.4873 46.2835,127.0186 51.1164,125.608 L 53.064,109.6617 L 87.877,80.4085 z "
   class="fil3 str2"
   style="fill:none;stroke:#1f1a17;stroke-width:0.69999999" />

 </g>
  </g>
</svg>
